<svg width="14" height="14" viewBox="0 0 14 14" fill="none" xmlns="http://www.w3.org/2000/svg">
<path fill-rule="evenodd" clip-rule="evenodd" d="M0.128088 0.12809C-0.0426958 0.298876 -0.0426961 0.575775 0.128088 0.746561L6.38155 7.00011L0.12831 13.2534C-0.0424738 13.4242 -0.0424734 13.7011 0.12831 13.8719C0.299094 14.0427 0.57599 14.0427 0.746773 13.8719L7.00001 7.61858L13.2532 13.8719C13.424 14.0427 13.7009 14.0427 13.8717 13.8719C14.0425 13.7011 14.0425 13.4242 13.8717 13.2534L7.61847 7.00011L13.8719 0.746561C14.0427 0.575775 14.0427 0.298876 13.8719 0.12809C13.7011 -0.0426966 13.4243 -0.0426966 13.2535 0.12809L7.00001 6.38164L0.746551 0.12809C0.575767 -0.0426966 0.298872 -0.0426966 0.128088 0.12809Z" fill="#999999"/>
</svg>
